<mxfile host="65bd71144e">
    <diagram id="_lEdI5Cna2NXtlaW2QXD" name="Page-1">
        <mxGraphModel dx="401" dy="255" grid="1" gridSize="10" guides="1" tooltips="1" connect="1" arrows="1" fold="1" page="1" pageScale="1" pageWidth="850" pageHeight="1100" math="0" shadow="0">
            <root>
                <mxCell id="0"/>
                <mxCell id="1" parent="0"/>
                <mxCell id="2" value="MAIN COMPONENT" style="rounded=0;whiteSpace=wrap;html=1;" vertex="1" parent="1">
                    <mxGeometry x="45" y="10" width="380" height="250" as="geometry"/>
                </mxCell>
                <mxCell id="3" value="Component1" style="rounded=1;whiteSpace=wrap;html=1;" vertex="1" parent="1">
                    <mxGeometry x="60" y="30" width="350" height="50" as="geometry"/>
                </mxCell>
                <mxCell id="4" value="&lt;span&gt;Component2&lt;/span&gt;" style="whiteSpace=wrap;html=1;aspect=fixed;" vertex="1" parent="1">
                    <mxGeometry x="60" y="95" width="105" height="105" as="geometry"/>
                </mxCell>
                <mxCell id="5" value="" style="rounded=1;whiteSpace=wrap;html=1;" vertex="1" parent="1">
                    <mxGeometry x="175" y="95" width="225" height="115" as="geometry"/>
                </mxCell>
                <mxCell id="6" value="&lt;span&gt;Component4&lt;/span&gt;" style="whiteSpace=wrap;html=1;aspect=fixed;" vertex="1" parent="1">
                    <mxGeometry x="310" y="112.5" width="80" height="80" as="geometry"/>
                </mxCell>
                <mxCell id="7" value="&lt;span&gt;Component3&lt;/span&gt;" style="rounded=1;whiteSpace=wrap;html=1;" vertex="1" parent="1">
                    <mxGeometry x="180" y="110" width="120" height="80" as="geometry"/>
                </mxCell>
            </root>
        </mxGraphModel>
    </diagram>
</mxfile>